<svg xmlns="http://www.w3.org/2000/svg" xmlns:xlink="http://www.w3.org/1999/xlink" width="500" zoomAndPan="magnify" viewBox="0 0 375 374.999991" height="500" preserveAspectRatio="xMidYMid meet" version="1.2"><defs><clipPath id="cd5e9d5489"><path d="M 3.75 9.75 L 184.5 9.75 L 184.5 190.5 L 3.75 190.5 Z M 3.75 9.75 "/></clipPath><clipPath id="eb7165fa94"><path d="M 47 73 L 302 73 L 302 331.460938 L 47 331.460938 Z M 47 73 "/></clipPath><clipPath id="d468681208"><path d="M 82 62.960938 L 345 62.960938 L 345 328 L 82 328 Z M 82 62.960938 "/></clipPath></defs><g id="b4e87070f9"><rect x="0" width="375" y="0" height="374.999991" style="fill:#ffffff;fill-opacity:1;stroke:none;"/><rect x="0" width="375" y="0" height="374.999991" style="fill:#f3ecff;fill-opacity:1;stroke:none;"/><path style=" stroke:none;fill-rule:nonzero;fill:#ffd815;fill-opacity:1;" d="M 73.761719 142.042969 C 62.421875 144.710938 60.257812 146.871094 57.589844 158.210938 C 54.925781 146.871094 52.761719 144.710938 41.421875 142.042969 C 52.761719 139.375 54.925781 137.210938 57.589844 125.871094 C 60.257812 137.210938 62.421875 139.375 73.761719 142.042969 Z M 73.761719 142.042969 "/><g clip-rule="nonzero" clip-path="url(#cd5e9d5489)"><path style=" stroke:none;fill-rule:nonzero;fill:#ffd815;fill-opacity:1;" d="M 184.480469 100.113281 C 100.917969 103.871094 97.871094 106.917969 94.113281 190.480469 C 90.359375 106.917969 87.3125 103.871094 3.75 100.113281 C 87.3125 96.359375 90.359375 93.3125 94.113281 9.75 C 97.871094 93.3125 100.917969 96.359375 184.480469 100.113281 Z M 184.480469 100.113281 "/></g><path style=" stroke:none;fill-rule:nonzero;fill:#ffd815;fill-opacity:1;" d="M 73.710938 52.386719 C 55.050781 53.226562 54.371094 53.90625 53.53125 72.570312 C 52.691406 53.90625 52.011719 53.226562 33.347656 52.386719 C 52.011719 51.550781 52.691406 50.867188 53.53125 32.207031 C 54.371094 50.867188 55.050781 51.550781 73.710938 52.386719 Z M 73.710938 52.386719 "/><path style=" stroke:none;fill-rule:nonzero;fill:#ffd815;fill-opacity:1;" d="M 175.042969 50.675781 C 147.636719 51.910156 146.640625 52.90625 145.40625 80.3125 C 144.175781 52.90625 143.175781 51.910156 115.773438 50.675781 C 143.175781 49.445312 144.175781 48.445312 145.40625 21.042969 C 146.640625 48.445312 147.636719 49.445312 175.042969 50.675781 Z M 175.042969 50.675781 "/><path style=" stroke:none;fill-rule:nonzero;fill:#ffd815;fill-opacity:1;" d="M 175.042969 30.496094 C 167.578125 30.832031 167.304688 31.105469 166.972656 38.570312 C 166.636719 31.105469 166.363281 30.832031 158.898438 30.496094 C 166.363281 30.160156 166.636719 29.890625 166.972656 22.425781 C 167.304688 29.890625 167.578125 30.160156 175.042969 30.496094 Z M 175.042969 30.496094 "/><path style=" stroke:none;fill-rule:nonzero;fill:#ffd815;fill-opacity:1;" d="M 128.488281 21.042969 C 121.023438 21.378906 120.75 21.648438 120.414062 29.113281 C 120.078125 21.648438 119.804688 21.378906 112.339844 21.042969 C 119.804688 20.707031 120.078125 20.433594 120.414062 12.96875 C 120.75 20.433594 121.023438 20.707031 128.488281 21.042969 Z M 128.488281 21.042969 "/><g clip-rule="nonzero" clip-path="url(#eb7165fa94)"><path style=" stroke:none;fill-rule:nonzero;fill:#fd9e0c;fill-opacity:1;" d="M 128.65625 73.632812 C 112.675781 74.515625 82.917969 77.492188 75.3125 79.144531 C 49.851562 84.4375 41.253906 96.78125 51.171875 113.535156 C 53.488281 117.394531 56.902344 121.472656 58.777344 122.683594 C 65.390625 126.761719 93.496094 130.289062 118.957031 130.289062 L 131.191406 130.289062 L 130.53125 159.167969 C 129.320312 211.636719 132.847656 295.300781 137.035156 311.613281 C 139.347656 320.761719 142.875 325.722656 149.269531 328.808594 C 154.007812 331.121094 155.882812 331.453125 167.015625 331.234375 C 177.046875 331.011719 180.460938 330.570312 184.097656 328.808594 C 189.941406 325.941406 197.4375 318.226562 199.089844 313.375 C 200.632812 308.746094 200.632812 288.355469 199.089844 266.421875 C 198.429688 256.058594 198.316406 227.398438 198.757812 189.921875 L 199.53125 130.070312 L 231.605469 130.839844 C 283.078125 132.164062 284.070312 132.164062 288.367188 129.847656 C 296.855469 125.332031 301.707031 116.953125 301.707031 106.589844 C 301.707031 92.59375 295.09375 87.191406 272.167969 82.5625 C 252.65625 78.59375 245.492188 77.601562 223.449219 75.726562 C 204.710938 74.074219 145.300781 72.863281 128.65625 73.632812 Z M 128.65625 73.632812 "/></g><path style=" stroke:none;fill-rule:nonzero;fill:#fd7d00;fill-opacity:1;" d="M 146.046875 70.25 C 131.5 70.800781 100.636719 73.996094 92.703125 75.648438 C 67.238281 80.941406 58.644531 93.285156 68.5625 110.039062 C 70.878906 113.898438 74.292969 117.976562 76.167969 119.1875 C 82.78125 123.265625 110.886719 126.792969 136.347656 126.792969 L 148.582031 126.792969 L 147.921875 155.671875 C 146.710938 208.472656 150.238281 291.804688 154.425781 308.117188 C 156.738281 317.265625 160.265625 322.226562 166.660156 325.3125 C 171.398438 327.628906 173.273438 327.957031 184.40625 327.738281 C 194.433594 327.515625 197.851562 327.074219 201.488281 325.3125 C 207.332031 322.445312 214.828125 314.730469 216.480469 309.878906 C 218.023438 305.25 218.023438 287.613281 216.480469 262.925781 C 215.820312 251.238281 215.707031 222.03125 216.148438 185.324219 L 216.921875 126.574219 L 247.894531 127.234375 C 264.976562 127.566406 282.941406 128.226562 287.902344 128.558594 C 308.183594 129.992188 320.085938 119.519531 318.875 101.222656 C 318.324219 92.625 315.570312 88.105469 308.292969 84.46875 C 303.335938 81.933594 283.824219 77.414062 267.84375 75.097656 C 238.964844 70.800781 185.507812 68.59375 146.046875 70.25 Z M 146.046875 70.25 "/><path style=" stroke:none;fill-rule:nonzero;fill:#ffcf35;fill-opacity:1;" d="M 150.261719 70.769531 C 128.878906 72.089844 105.730469 74.957031 98.679688 76.941406 C 76.964844 83.445312 70.570312 94.578125 79.828125 110.230469 C 82.144531 114.085938 85.5625 118.164062 87.433594 119.378906 C 94.046875 123.457031 122.15625 126.984375 147.617188 126.984375 L 159.851562 126.984375 L 159.1875 155.863281 C 157.976562 208.332031 161.503906 291.992188 165.691406 308.304688 C 168.007812 317.453125 171.535156 322.414062 177.925781 325.5 C 182.667969 327.816406 184.539062 328.148438 195.671875 327.925781 C 205.703125 327.707031 209.121094 327.265625 212.757812 325.5 C 218.597656 322.636719 226.09375 314.917969 227.746094 310.070312 C 229.289062 305.441406 229.289062 287.804688 227.746094 263.113281 C 227.085938 251.429688 226.976562 222.21875 227.417969 185.515625 L 228.1875 126.761719 L 259.160156 127.425781 C 276.246094 127.753906 294.210938 128.417969 299.171875 128.746094 C 319.449219 130.179688 331.355469 119.707031 330.140625 101.410156 C 329.371094 88.515625 323.417969 83.996094 301.152344 79.253906 C 283.628906 75.507812 275.140625 74.40625 252.105469 72.421875 C 228.628906 70.328125 171.203125 69.445312 150.261719 70.769531 Z M 150.261719 70.769531 "/><g clip-rule="nonzero" clip-path="url(#d468681208)"><path style=" stroke:none;fill-rule:evenodd;fill:#ffffff;fill-opacity:1;" d="M 181.664062 62.976562 C 183.496094 62.96875 184.984375 64.433594 185.003906 66.25 C 185.027344 68.082031 183.5625 69.582031 181.730469 69.589844 C 173.609375 69.679688 166.265625 69.890625 160.269531 70.253906 C 154.636719 70.617188 148.875 71.070312 143.320312 71.597656 C 141.5 71.773438 139.878906 70.429688 139.714844 68.621094 C 139.539062 66.804688 140.871094 65.183594 142.691406 65.015625 C 148.324219 64.476562 154.152344 64.015625 159.851562 63.660156 L 159.863281 63.660156 C 165.957031 63.285156 173.410156 63.066406 181.664062 62.976562 Z M 125.417969 66.945312 C 127.238281 66.703125 128.890625 67.984375 129.132812 69.789062 C 129.375 71.597656 128.097656 73.261719 126.289062 73.492188 C 118.9375 74.472656 113.042969 75.476562 109.988281 76.402344 C 109.976562 76.402344 109.964844 76.414062 109.953125 76.414062 C 104.472656 78.023438 100.03125 79.941406 96.660156 82.210938 C 95.148438 83.226562 93.089844 82.828125 92.074219 81.308594 C 91.054688 79.796875 91.457031 77.738281 92.96875 76.722656 C 96.804688 74.144531 101.839844 71.90625 108.09375 70.066406 C 111.34375 69.085938 117.617188 67.972656 125.417969 66.945312 Z M 83 91.691406 C 83.191406 89.875 84.816406 88.550781 86.632812 88.738281 C 88.449219 88.9375 89.769531 90.558594 89.578125 92.375 C 89.1875 96.144531 90.523438 100.34375 93.34375 105.039062 C 96.09375 109.59375 97.917969 111.664062 101.058594 113.285156 C 103.9375 114.71875 109.273438 115.917969 116.480469 116.957031 C 118.289062 117.210938 119.542969 118.886719 119.28125 120.691406 C 119.027344 122.5 117.351562 123.757812 115.542969 123.503906 C 107.355469 122.335938 101.324219 120.8125 98.070312 119.183594 C 98.058594 119.183594 98.046875 119.171875 98.035156 119.171875 C 93.898438 117.03125 91.316406 114.476562 87.679688 108.457031 C 83.960938 102.273438 82.484375 96.652344 83 91.691406 Z M 132.816406 125.289062 C 130.996094 125.15625 129.628906 123.570312 129.761719 121.75 C 129.894531 119.933594 131.46875 118.554688 133.300781 118.6875 C 138.492188 119.0625 144.132812 119.347656 150.128906 119.535156 L 150.140625 119.535156 L 170.421875 120.195312 C 172.230469 120.261719 173.664062 121.761719 173.617188 123.582031 L 172.957031 152.347656 C 172.835938 157.671875 172.757812 163.316406 172.726562 169.179688 C 172.726562 171.011719 171.226562 172.488281 169.410156 172.476562 C 167.578125 172.464844 166.113281 170.976562 166.113281 169.148438 C 166.144531 163.238281 166.222656 157.550781 166.34375 152.195312 L 166.929688 126.699219 L 149.921875 126.148438 C 143.835938 125.960938 138.105469 125.664062 132.816406 125.289062 Z M 166.144531 186.246094 C 166.132812 184.414062 167.601562 182.914062 169.429688 182.90625 C 171.25 182.894531 172.746094 184.359375 172.757812 186.1875 C 172.859375 197.234375 173.078125 208.675781 173.398438 219.90625 C 173.453125 221.738281 172.019531 223.257812 170.191406 223.3125 C 168.371094 223.359375 166.839844 221.925781 166.796875 220.09375 C 166.464844 208.820312 166.246094 197.332031 166.144531 186.246094 Z M 167.367188 237.167969 C 167.304688 235.339844 168.726562 233.808594 170.542969 233.730469 C 172.375 233.664062 173.90625 235.085938 173.980469 236.90625 C 174.457031 249.03125 175.050781 260.527344 175.722656 270.566406 C 175.84375 272.386719 174.46875 273.960938 172.648438 274.082031 C 170.832031 274.203125 169.253906 272.828125 169.121094 271.007812 C 168.449219 260.910156 167.855469 249.359375 167.367188 237.167969 Z M 170.488281 288.09375 C 170.3125 286.273438 171.644531 284.664062 173.464844 284.488281 C 175.28125 284.3125 176.902344 285.644531 177.078125 287.453125 C 177.796875 294.917969 178.554688 300.570312 179.351562 303.667969 C 179.359375 303.667969 179.359375 303.679688 179.359375 303.679688 C 181.367188 311.625 184.277344 316.035156 189.820312 318.714844 C 189.832031 318.714844 189.832031 318.714844 189.84375 318.714844 C 194.164062 320.832031 195.894531 321.007812 205.847656 320.808594 C 205.859375 320.808594 205.859375 320.808594 205.871094 320.808594 C 213.296875 320.710938 218.511719 320.203125 220.957031 319.1875 C 224.109375 317.875 228.234375 314.4375 231.308594 311.019531 C 233.171875 308.949219 234.703125 306.921875 235.132812 305.367188 L 235.132812 305.355469 C 235.785156 303.050781 236.058594 297.914062 236.070312 290.683594 C 236.082031 288.855469 237.558594 287.375 239.386719 287.375 C 241.207031 287.375 242.695312 288.863281 242.683594 290.695312 C 242.671875 298.808594 242.230469 304.5625 241.503906 307.152344 C 240.875 309.390625 238.914062 312.464844 236.222656 315.453125 C 232.464844 319.617188 227.351562 323.695312 223.492188 325.292969 C 220.648438 326.484375 214.621094 327.300781 205.96875 327.421875 C 194.121094 327.664062 192.089844 327.179688 186.945312 324.667969 C 179.714844 321.171875 175.570312 315.660156 172.945312 305.3125 C 172.097656 302.015625 171.261719 296.019531 170.488281 288.09375 Z M 242.339844 274.789062 C 242.40625 276.609375 240.984375 278.152344 239.167969 278.226562 C 237.347656 278.292969 235.804688 276.871094 235.726562 275.054688 C 235.539062 270.246094 235.265625 265.046875 234.914062 259.511719 C 234.914062 259.511719 234.914062 259.5 234.902344 259.488281 C 234.605469 254.15625 234.417969 245.195312 234.339844 233.53125 C 234.328125 231.710938 235.804688 230.214844 237.625 230.203125 C 239.453125 230.191406 240.941406 231.667969 240.953125 233.488281 C 241.03125 244.984375 241.207031 253.835938 241.503906 259.105469 C 241.867188 264.679688 242.144531 269.9375 242.339844 274.789062 Z M 240.953125 207.519531 C 240.953125 209.335938 239.453125 210.8125 237.636719 210.800781 C 235.804688 210.792969 234.339844 209.304688 234.339844 207.484375 C 234.382812 199.4375 234.460938 190.785156 234.570312 181.660156 L 234.824219 162.125 C 234.847656 160.308594 236.355469 158.84375 238.175781 158.863281 C 240.003906 158.898438 241.460938 160.394531 241.4375 162.214844 L 241.183594 181.746094 C 241.074219 190.851562 240.996094 199.492188 240.953125 207.519531 Z M 241.703125 142.527344 C 241.679688 144.347656 240.171875 145.8125 238.351562 145.792969 C 236.523438 145.757812 235.066406 144.257812 235.089844 142.441406 L 235.34375 122.90625 C 235.355469 122.027344 235.71875 121.1875 236.355469 120.570312 C 236.996094 119.953125 237.84375 119.625 238.726562 119.644531 L 270.800781 120.417969 L 270.8125 120.417969 C 278.261719 120.617188 284.65625 120.78125 290.15625 120.925781 C 291.984375 120.96875 293.429688 122.488281 293.386719 124.308594 C 293.339844 126.136719 291.820312 127.582031 289.992188 127.539062 C 284.492188 127.394531 278.097656 127.230469 270.636719 127.03125 L 241.910156 126.335938 Z M 309.566406 127.933594 C 307.734375 127.914062 306.269531 126.414062 306.292969 124.59375 C 306.3125 122.765625 307.800781 121.300781 309.632812 121.320312 C 323.34375 121.464844 323.617188 121.035156 326.835938 119.203125 C 326.847656 119.195312 326.847656 119.195312 326.859375 119.195312 C 331.421875 116.625 336.183594 110.089844 337.132812 105.238281 C 338.179688 99.738281 337.210938 92.230469 334.9375 88.835938 C 333.691406 87.25 330.839844 85 328.5 83.789062 C 323.5625 81.40625 304.617188 76.988281 289.617188 74.640625 C 284.191406 73.8125 276.851562 73.074219 268.34375 72.414062 C 266.523438 72.269531 265.15625 70.683594 265.300781 68.863281 C 265.433594 67.046875 267.03125 65.679688 268.851562 65.820312 C 277.558594 66.496094 285.074219 67.265625 290.617188 68.09375 C 290.617188 68.09375 290.628906 68.105469 290.640625 68.105469 C 306.433594 70.582031 326.394531 75.390625 331.476562 77.871094 C 331.5 77.890625 331.523438 77.902344 331.542969 77.914062 C 334.707031 79.554688 338.609375 82.753906 340.25 84.902344 C 340.285156 84.945312 340.316406 84.992188 340.351562 85.035156 C 343.347656 89.410156 345 99.242188 343.636719 106.484375 C 343.636719 106.496094 343.636719 106.496094 343.625 106.507812 C 342.378906 112.886719 336.128906 121.550781 330.121094 124.949219 C 326.265625 127.140625 325.988281 128.109375 309.566406 127.933594 Z M 246.972656 64.445312 C 248.800781 64.53125 250.199219 66.085938 250.113281 67.917969 C 250.011719 69.734375 248.457031 71.144531 246.640625 71.046875 C 232.753906 70.339844 217.695312 69.855469 203.488281 69.65625 C 201.660156 69.636719 200.203125 68.125 200.226562 66.308594 C 200.25 64.476562 201.746094 63.023438 203.578125 63.042969 C 217.863281 63.242188 233.007812 63.738281 246.972656 64.445312 Z M 246.972656 64.445312 "/></g></g></svg>